<svg xmlns="http://www.w3.org/2000/svg" width="48" height="48" viewBox="0 0 48 48">
  <defs>
    <linearGradient id="walletGrad" x1="0%" y1="0%" x2="100%" y2="100%">
      <stop offset="0%" style="stop-color:#006b2c"/>
      <stop offset="100%" style="stop-color:#00873a"/>
    </linearGradient>
  </defs>
  <rect width="48" height="48" rx="12" fill="url(#walletGrad)"/>
  <path d="M12 16h20c1.1 0 2 .9 2 2v2h-6c-2.2 0-4 1.8-4 4s1.8 4 4 4h6v2c0 1.1-.9 2-2 2H12c-1.1 0-2-.9-2-2V18c0-1.1.9-2 2-2z" fill="white" opacity="0.95"/>
  <rect x="28" y="22" width="10" height="8" rx="1" fill="white" opacity="0.95"/>
  <circle cx="32" cy="26" r="2" fill="#006b2c"/>
</svg>
